<svg width="53" height="79" viewBox="0 0 53 79" fill="none" xmlns="http://www.w3.org/2000/svg">
<path d="M16.9588 76V67.2727H22.4304V68.4062H18.2756V71.0653H22.1449V72.1946H18.2756V74.8665H22.4815V76H16.9588ZM26.5373 76.1278C26.0089 76.1278 25.5373 75.9929 25.1225 75.723C24.7106 75.4503 24.3867 75.0625 24.1509 74.5597C23.918 74.054 23.8015 73.4474 23.8015 72.7401C23.8015 72.0327 23.9194 71.4276 24.1552 70.9247C24.3938 70.4219 24.7205 70.0369 25.1353 69.7699C25.5501 69.5028 26.0202 69.3693 26.5458 69.3693C26.9521 69.3693 27.2788 69.4375 27.5259 69.5739C27.7759 69.7074 27.9691 69.8636 28.1055 70.0426C28.2447 70.2216 28.3526 70.3793 28.4293 70.5156H28.506V67.2727H29.7802V76H28.5359V74.9815H28.4293C28.3526 75.1207 28.2418 75.2798 28.0969 75.4588C27.9549 75.6378 27.7589 75.794 27.5089 75.9276C27.2589 76.0611 26.935 76.1278 26.5373 76.1278ZM26.8185 75.0412C27.185 75.0412 27.4947 74.9446 27.7475 74.7514C28.0032 74.5554 28.1964 74.2841 28.3271 73.9375C28.4606 73.5909 28.5273 73.1875 28.5273 72.7273C28.5273 72.2727 28.462 71.875 28.3313 71.5341C28.2006 71.1932 28.0089 70.9276 27.756 70.7372C27.5032 70.5469 27.1907 70.4517 26.8185 70.4517C26.435 70.4517 26.1154 70.5511 25.8597 70.75C25.604 70.9489 25.4109 71.2202 25.2802 71.5639C25.1523 71.9077 25.0884 72.2955 25.0884 72.7273C25.0884 73.1648 25.1538 73.5582 25.2844 73.9077C25.4151 74.2571 25.6083 74.5341 25.864 74.7386C26.1225 74.9403 26.4407 75.0412 26.8185 75.0412ZM31.5987 76V69.4545H32.8729V76H31.5987ZM32.2422 68.4446C32.0206 68.4446 31.8303 68.3707 31.6712 68.223C31.5149 68.0724 31.4368 67.8935 31.4368 67.6861C31.4368 67.4759 31.5149 67.2969 31.6712 67.1491C31.8303 66.9986 32.0206 66.9233 32.2422 66.9233C32.4638 66.9233 32.6527 66.9986 32.8089 67.1491C32.968 67.2969 33.0476 67.4759 33.0476 67.6861C33.0476 67.8935 32.968 68.0724 32.8089 68.223C32.6527 68.3707 32.4638 68.4446 32.2422 68.4446ZM37.6424 69.4545V70.4773H34.0671V69.4545H37.6424ZM35.0259 67.8864H36.3001V74.0781C36.3001 74.3253 36.337 74.5114 36.4109 74.6364C36.4847 74.7585 36.5799 74.8423 36.6964 74.8878C36.8157 74.9304 36.945 74.9517 37.0842 74.9517C37.1864 74.9517 37.2759 74.9446 37.3526 74.9304C37.4293 74.9162 37.489 74.9048 37.5316 74.8963L37.7617 75.9489C37.6879 75.9773 37.5827 76.0057 37.4464 76.0341C37.31 76.0653 37.1396 76.0824 36.935 76.0852C36.5998 76.0909 36.2873 76.0312 35.9975 75.9062C35.7077 75.7812 35.4734 75.5881 35.2944 75.3267C35.1154 75.0653 35.0259 74.7372 35.0259 74.3423V67.8864Z" fill="white"/>
<path d="M2.83334 54.1146C2.24513 54.1138 1.68124 53.8732 1.26531 53.4455C0.849388 53.0179 0.615376 52.4381 0.614594 51.8333L0.614594 39.1161C0.616722 38.5116 0.850578 37.9324 1.26543 37.504L34.5201 3.31873C35.2673 2.54987 36.1546 1.93995 37.1313 1.52381C38.1079 1.10768 39.1547 0.893494 40.2119 0.893494C41.2691 0.893494 42.3159 1.10768 43.2925 1.52381C44.2691 1.93995 45.1564 2.54987 45.9037 3.31873L50.0188 7.54969C50.7666 8.31802 51.3598 9.23032 51.7645 10.2345C52.1692 11.2386 52.3776 12.3149 52.3776 13.4019C52.3776 14.4888 52.1692 15.5651 51.7645 16.5693C51.3598 17.5734 50.7666 18.4857 50.0188 19.254L16.773 53.4454C16.5671 53.6581 16.3223 53.8267 16.0527 53.9415C15.7831 54.0564 15.494 54.1152 15.2021 54.1146H2.83334ZM5.05209 40.059V49.5521H14.2821L37.6825 25.4925L28.4525 16.0025L5.05209 40.059ZM40.8213 22.2683L46.8888 16.0299C47.565 15.3326 47.9447 14.388 47.9447 13.4034C47.9447 12.4187 47.565 11.4742 46.8888 10.7769L42.7679 6.53682C42.0901 5.84085 41.1713 5.44993 40.2134 5.44993C39.2554 5.44993 38.3367 5.84085 37.6588 6.53682L31.5883 12.7783L40.8213 22.2683Z" fill="#fff"/>
</svg>
