<svg width="56" height="54" viewBox="0 0 56 54" fill="none" xmlns="http://www.w3.org/2000/svg">
<g clip-path="url(#clip0_47_20)">
<path fill-rule="evenodd" clip-rule="evenodd" d="M35.4167 10.25C38.7452 10.25 41.466 12.8519 41.656 16.1328L41.6667 16.5V25.5627L42.9039 25.0129C44.1825 24.4447 45.6589 25.3264 45.819 26.6742L45.8333 26.9167V43.5833C45.8333 45.78 44.1336 47.5795 41.9776 47.7386L41.6667 47.75H8.33332C6.13673 47.75 4.33715 46.0503 4.17809 43.8943L4.16666 43.5833V26.9167C4.16666 25.5175 5.57215 24.5264 6.86874 24.9275L7.09611 25.0129L8.33332 25.5627V16.5C8.33332 13.1715 10.9352 10.4507 14.2161 10.2606L14.5833 10.25H35.4167ZM41.6667 30.1225L26.6923 36.7777C25.6148 37.2565 24.3852 37.2565 23.3077 36.7777L8.33332 30.1225V43.5833H41.6667V30.1225ZM35.4167 14.4167H14.5833C13.4327 14.4167 12.5 15.3494 12.5 16.5V27.4146L25 32.9702L37.5 27.4146V16.5C37.5 15.3494 36.5673 14.4167 35.4167 14.4167ZM25 20.6667C26.1506 20.6667 27.0833 21.5994 27.0833 22.75C27.0833 23.8184 26.2791 24.699 25.243 24.8193L25 24.8333H20.8333C19.6827 24.8333 18.75 23.9006 18.75 22.75C18.75 21.6816 19.5542 20.801 20.5904 20.6807L20.8333 20.6667H25Z" fill="#C5C4C4"/>
</g>
<ellipse cx="50.5" cy="5" rx="5.5" ry="5" fill="#B21313"/>
<defs>
<clipPath id="clip0_47_20">
<rect width="50" height="50" fill="white" transform="translate(0 4)"/>
</clipPath>
</defs>
</svg>
