<svg width="1068" height="1174" viewBox="0 0 1068 1174" fill="none" xmlns="http://www.w3.org/2000/svg">
<path d="M876.433 365.724C917.11 419.877 941.21 487.19 941.21 560.132C941.21 633.074 917.11 700.384 876.433 754.54M137.684 365.724H196.084C231.786 365.724 249.636 365.724 266.178 361.273C280.835 357.33 294.685 350.843 307.097 342.108C321.106 332.249 332.533 318.536 355.389 291.109L525.553 86.91C553.788 53.0299 567.902 36.0899 580.234 34.3266C590.913 32.7998 601.651 36.688 608.877 44.6969C617.223 53.9456 617.223 75.9966 617.223 120.099V1000.16C617.223 1044.27 617.223 1066.32 608.877 1075.57C601.651 1083.57 590.913 1087.46 580.234 1085.93C567.908 1084.17 553.788 1067.23 525.553 1033.35L355.389 829.153C332.533 801.729 321.106 788.01 307.097 778.154C294.685 769.418 280.835 762.932 266.178 758.992C249.636 754.54 231.786 754.54 196.084 754.54H137.684C101.391 754.54 83.2448 754.54 69.3829 747.476C57.1896 741.262 47.2761 731.347 41.0628 719.157C34 705.296 34 687.145 34 650.856V469.408C34 433.112 34 414.968 41.0628 401.106C47.2761 388.913 57.1896 378.999 69.3829 372.786C83.2448 365.724 101.391 365.724 137.684 365.724Z" stroke="#C5C4C4" stroke-width="66.6667" stroke-linecap="round" stroke-linejoin="round"/>
<path d="M827.093 965.224C834.596 964.766 843.846 964.766 855.741 964.766H957.604C969.499 964.766 978.749 964.766 986.252 965.224M827.093 965.224C817.729 965.795 811.086 967.081 805.416 969.97C796.431 974.547 789.127 981.851 784.549 990.836C779.345 1001.05 779.345 1014.42 779.345 1041.16V1063.44C779.345 1090.19 779.345 1103.56 784.549 1113.77C789.127 1122.76 796.431 1130.06 805.416 1134.64C815.629 1139.84 829 1139.84 855.741 1139.84H957.604C984.346 1139.84 997.715 1139.84 1007.93 1134.64C1016.91 1130.06 1024.22 1122.76 1028.8 1113.77C1034 1103.56 1034 1090.19 1034 1063.44V1041.16C1034 1014.42 1034 1001.05 1028.8 990.836C1024.22 981.851 1016.91 974.547 1007.93 969.97C1002.26 967.081 995.616 965.795 986.252 965.224M827.093 965.224V932.934C827.093 888.983 862.722 853.354 906.672 853.354C950.623 853.354 986.252 888.983 986.252 932.934V965.224" stroke="#C5C4C4" stroke-width="66.6667" stroke-linecap="round" stroke-linejoin="round"/>
</svg>
