<svg width="2162" height="2384" viewBox="0 0 2162 2384" fill="none" xmlns="http://www.w3.org/2000/svg">
<path d="M1798.34 728.74C1883.53 842.154 1934 983.131 1934 1135.9C1934 1288.66 1883.53 1429.63 1798.34 1543.05M251.149 728.74H373.458C448.23 728.74 485.614 728.74 520.258 719.419C550.955 711.16 579.96 697.575 605.956 679.28C635.295 658.633 659.228 629.913 707.096 572.473L1063.48 144.811C1122.61 73.8549 1152.17 38.3768 1178 34.684C1200.36 31.4864 1222.85 39.6295 1237.98 56.4029C1255.46 75.7726 1255.46 121.955 1255.46 214.319V2057.46C1255.46 2149.83 1255.46 2196.02 1237.98 2215.38C1222.85 2232.16 1200.36 2240.3 1178 2237.1C1152.18 2233.41 1122.61 2197.93 1063.48 2126.98L707.096 1699.32C659.228 1641.88 635.295 1613.15 605.956 1592.51C579.96 1574.21 550.955 1560.63 520.258 1552.37C485.614 1543.05 448.23 1543.05 373.458 1543.05H251.149C175.14 1543.05 137.135 1543.05 108.103 1528.26C82.5667 1515.24 61.8046 1494.48 48.7919 1468.95C34 1439.92 34 1401.9 34 1325.9V945.89C34 869.874 34 831.875 48.7919 802.842C61.8046 777.305 82.5667 756.543 108.103 743.532C137.135 728.74 175.14 728.74 251.149 728.74Z" stroke="#C5C4C4" stroke-width="66.6667" stroke-linecap="round" stroke-linejoin="round"/>
<path d="M1695 1984.29C1710.71 1983.33 1730.09 1983.33 1755 1983.33H1968.33C1993.25 1983.33 2012.62 1983.33 2028.33 1984.29M1695 1984.29C1675.39 1985.49 1661.48 1988.18 1649.6 1994.23C1630.78 2003.82 1615.49 2019.12 1605.9 2037.93C1595 2059.33 1595 2087.33 1595 2143.33V2190C1595 2246.01 1595 2274.01 1605.9 2295.4C1615.49 2314.22 1630.78 2329.51 1649.6 2339.1C1670.99 2350 1698.99 2350 1755 2350H1968.33C2024.34 2350 2052.34 2350 2073.73 2339.1C2092.55 2329.51 2107.85 2314.22 2117.43 2295.4C2128.33 2274.01 2128.33 2246.01 2128.33 2190V2143.33C2128.33 2087.33 2128.33 2059.33 2117.43 2037.93C2107.85 2019.12 2092.55 2003.82 2073.73 1994.23C2061.86 1988.18 2047.94 1985.49 2028.33 1984.29M1695 1984.29V1916.67C1695 1824.62 1769.62 1750 1861.67 1750C1953.71 1750 2028.33 1824.62 2028.33 1916.67V1984.29" stroke="#C5C4C4" stroke-width="66.6667" stroke-linecap="round" stroke-linejoin="round"/>
</svg>
