<svg width="30" height="28" viewBox="0 0 30 28" fill="none" xmlns="http://www.w3.org/2000/svg">
<path d="M18.2408 2.20678C17.6957 3.15047 8.85665 18.9119 8.82148 19.0057C8.78045 19.0995 8.8801 19.1053 10.4217 19.1053H12.057L15.3277 13.4197C17.1272 10.2897 18.616 7.73413 18.6394 7.73413C18.6629 7.73413 21.2243 12.2592 24.3309 17.7865L29.9813 27.833L29.9989 25.6233C30.0048 24.24 29.9872 23.308 29.952 23.1263C29.911 22.927 28.1174 19.5567 24.2254 12.3705C21.1129 6.60873 18.5398 1.87854 18.5163 1.85509C18.4929 1.82579 18.3698 1.98405 18.2408 2.20678Z" fill="#273687"/>
<path d="M14.7064 0.0673523C14.5891 0.0966606 14.4133 0.208027 14.3137 0.307673C14.1319 0.501101 0.967137 23.0794 1.00817 23.1263C1.02575 23.138 5.37495 23.1439 10.6854 23.138L20.3275 23.1204L19.6183 21.9364L18.9032 20.7465H12.5025C8.01846 20.7465 6.0959 20.729 6.0959 20.6821C6.0959 20.641 16.2069 2.35332 17.5081 0.0380459C17.5433 -0.0264301 14.9526 -0.002985 14.7064 0.0673523Z" fill="#273687"/>
<path d="M17.7778 12.564L16.9513 13.9942L18.827 17.2414C19.8586 19.0233 21.2829 21.4441 21.998 22.6163C22.7131 23.7945 23.311 24.7734 23.3168 24.8027C23.3286 24.8261 18.0884 24.8496 11.6701 24.8496H0V25.9632C0 26.7721 0.0234458 27.1355 0.0820603 27.2703C0.181705 27.5165 0.468916 27.7568 0.750265 27.8389C0.902663 27.8858 5.02912 27.8975 14.4895 27.8858L28.0177 27.8682L23.352 19.5449C20.7847 14.9672 18.6687 11.1982 18.6453 11.1748C18.6218 11.1514 18.2291 11.7727 17.7778 12.564Z" fill="#273687"/>
</svg>
