<svg width="248" height="287" viewBox="0 0 248 287" fill="none" xmlns="http://www.w3.org/2000/svg">
<path d="M189.34 239.247C189.34 248.895 182.99 258.524 170.24 265.876C144.789 280.569 103.51 280.569 78.0526 265.876C65.3271 258.518 58.9521 248.895 58.9521 239.247C58.9521 229.6 65.3271 219.995 78.0526 212.636C103.504 197.944 144.783 197.944 170.24 212.636C182.99 219.995 189.34 229.618 189.34 239.247Z" fill="#3C4EF5"/>
<path d="M124.159 286.731C103.352 286.731 82.5577 282.159 66.7175 273.022C51.1749 264.036 42.6143 252.045 42.6143 239.247C42.6143 226.448 51.1749 214.481 66.7175 205.496C98.3917 187.215 149.925 187.215 181.594 205.496C197.136 214.463 205.697 226.448 205.697 239.247C205.697 252.045 197.136 264.054 181.594 273.028C165.759 282.165 144.953 286.737 124.152 286.737L124.159 286.731ZM124.159 193.796C103.728 193.796 83.2984 198.283 67.7436 207.263C52.8627 215.866 44.6664 227.225 44.6664 239.241C44.6664 251.256 52.8627 262.64 67.7436 271.249C83.2984 280.222 103.728 284.715 124.159 284.715C144.595 284.715 165.019 280.228 180.574 271.249C195.454 262.664 203.651 251.292 203.651 239.247C203.651 227.201 195.454 215.854 180.574 207.269C165.019 198.289 144.589 193.802 124.159 193.802V193.796Z" fill="#464CFF"/>
<path d="M178.41 172.49V199.362C178.41 207.431 173.08 215.481 162.418 221.644C150.178 228.705 133.573 231.71 117.63 230.636C105.809 229.871 94.3342 226.865 85.2758 221.644C74.6387 215.481 69.3081 207.431 69.3081 199.362V172.514C71.6759 174.554 74.4202 176.485 77.5348 178.282C89.2464 185.04 104.273 188.701 119.603 189.271C137.744 189.951 156.298 186.29 170.159 178.282C171.871 177.317 173.45 176.285 174.919 175.21C176.17 174.33 177.33 173.431 178.41 172.49Z" fill="#C2C7FB"/>
<path d="M133.999 175.211C133.404 175.278 132.834 175.32 132.245 175.363C130.927 175.472 129.592 175.563 128.274 175.606C126.829 175.673 125.402 175.691 123.951 175.691H123.775C122.482 175.691 121.189 175.667 119.896 175.606H119.61V175.211H133.999Z" fill="#C2C7FB"/>
<path d="M189.354 199.357C189.354 209.053 182.973 218.725 170.163 226.114C156.302 234.122 137.748 237.783 119.607 237.103C104.276 236.532 89.2498 232.871 77.5382 226.114C64.752 218.719 58.3467 209.047 58.3467 199.357C58.3467 192.053 62.0077 184.725 69.3115 178.386V199.357C69.3115 207.426 74.6422 215.476 85.2792 221.639C94.3376 226.86 105.812 229.866 117.633 230.631C133.577 231.705 150.182 228.7 162.422 221.639C173.083 215.476 178.414 207.426 178.414 199.357V178.411C185.717 184.749 189.36 192.053 189.36 199.357H189.354Z" fill="white"/>
<path d="M123.854 238.087C122.427 238.087 121.006 238.063 119.573 238.008C103.563 237.413 88.476 233.467 77.0861 226.897C64.4213 219.575 57.4453 209.794 57.4453 199.358C57.4453 191.598 61.3431 184.112 68.7259 177.707C68.993 177.476 69.3694 177.422 69.6912 177.568C70.013 177.713 70.2194 178.035 70.2194 178.387V199.358C70.2194 207.427 75.7322 215.064 85.7378 220.862C94.3105 225.805 105.664 228.956 117.697 229.733C134.145 230.838 150.282 227.608 161.976 220.856C171.993 215.064 177.512 207.427 177.512 199.352V178.405C177.512 178.053 177.719 177.731 178.04 177.586C178.362 177.44 178.739 177.495 179.006 177.725C186.37 184.119 190.262 191.598 190.262 199.352C190.262 209.8 183.286 219.581 170.621 226.891C158.181 234.074 141.333 238.081 123.86 238.081L123.854 238.087ZM68.4102 180.427C62.4056 186.158 59.2485 192.667 59.2485 199.358C59.2485 209.12 65.9027 218.349 77.9908 225.337C89.1256 231.761 103.921 235.622 119.64 236.205C138.291 236.903 156.542 232.945 169.711 225.337C181.799 218.361 188.453 209.139 188.453 199.358C188.453 192.673 185.302 186.171 179.315 180.451V199.358C179.315 208.1 173.475 216.291 162.874 222.423C150.877 229.344 134.363 232.665 117.57 231.536C105.087 230.722 93.7641 227.577 84.8271 222.423C74.2387 216.285 68.4102 208.094 68.4102 199.358V180.427Z" fill="#141BEB"/>
<path d="M189.364 199.364V213.024C189.388 222.72 182.983 232.392 170.173 239.781C144.6 254.54 103.121 254.54 77.548 239.781C64.7375 232.392 58.3322 222.714 58.3565 213.024V199.364C58.3565 209.06 64.7618 218.731 77.548 226.12C103.121 240.88 144.6 240.88 170.173 226.12C182.983 218.725 189.364 209.054 189.364 199.364Z" fill="#C2C7FB"/>
<path d="M123.859 251.73C106.92 251.73 89.9871 248.008 77.0916 240.565C64.4024 233.243 57.4265 223.462 57.4507 213.019V199.358C57.4507 198.861 57.8575 198.454 58.3554 198.454C58.8532 198.454 59.26 198.861 59.26 199.358C59.26 209.121 65.9142 218.35 78.0023 225.338C103.289 239.933 144.435 239.933 169.728 225.338C181.81 218.362 188.47 209.139 188.47 199.358C188.47 198.861 188.877 198.454 189.375 198.454C189.873 198.454 190.28 198.861 190.28 199.358V213.019C190.304 223.456 183.328 233.237 170.639 240.559C157.749 248.002 140.81 251.724 123.877 251.724L123.859 251.73ZM59.2539 208.429V213.031C59.2297 222.8 65.8899 232.022 77.9962 239.011C103.283 253.606 144.435 253.606 169.722 239.011C181.828 232.022 188.483 222.8 188.464 213.037V208.441C185.635 215.405 179.54 221.768 170.627 226.91C144.842 241.791 102.883 241.791 77.0976 226.91C68.1849 221.756 62.0893 215.387 59.26 208.429H59.2539Z" fill="#141BEB"/>
<path d="M108.706 195.515V221.943C100.127 220.516 92.0341 217.863 85.2827 213.959C81.1178 211.549 77.7603 208.847 75.2407 205.976V179.547C77.7603 182.419 81.1178 185.12 85.2827 187.531C92.0401 191.435 100.133 194.088 108.706 195.515Z" fill="#00EDBE"/>
<path d="M108.702 222.842C108.654 222.842 108.605 222.842 108.557 222.829C99.6258 221.348 91.4173 218.549 84.8299 214.736C80.6467 212.314 77.1921 209.563 74.5572 206.564C74.4114 206.4 74.3325 206.188 74.3325 205.969V179.541C74.3325 179.164 74.5632 178.83 74.9154 178.697C75.2675 178.563 75.6621 178.666 75.9111 178.946C78.4125 181.799 81.7153 184.422 85.7284 186.741C92.1337 190.445 100.13 193.165 108.848 194.616C109.285 194.689 109.601 195.065 109.601 195.508V221.937C109.601 222.204 109.486 222.453 109.279 222.623C109.115 222.763 108.909 222.835 108.696 222.835L108.702 222.842ZM76.1357 205.629C78.6128 208.386 81.8367 210.923 85.7284 213.176C91.8787 216.728 99.4861 219.381 107.798 220.868V196.273C99.1583 194.761 91.2291 192.011 84.8238 188.308C81.4299 186.34 78.5157 184.167 76.1357 181.811V205.623V205.629Z" fill="#141BEB"/>
<path d="M136.183 222.162C135.686 222.162 135.279 221.755 135.279 221.257V195.794C135.279 195.296 135.686 194.889 136.183 194.889C136.681 194.889 137.088 195.296 137.088 195.794V221.257C137.088 221.755 136.681 222.162 136.183 222.162Z" fill="#141BEB"/>
<path d="M144.548 220.796C144.05 220.796 143.643 220.389 143.643 219.891V194.525C143.643 194.027 144.05 193.621 144.548 193.621C145.046 193.621 145.452 194.027 145.452 194.525V219.891C145.452 220.389 145.046 220.796 144.548 220.796Z" fill="#141BEB"/>
<path d="M152.907 218.215C152.409 218.215 152.002 217.808 152.002 217.311V192.618C152.002 192.12 152.409 191.714 152.907 191.714C153.405 191.714 153.812 192.12 153.812 192.618V217.311C153.812 217.808 153.405 218.215 152.907 218.215Z" fill="#141BEB"/>
<path d="M161.276 214.475C160.778 214.475 160.372 214.068 160.372 213.57V189.868C160.372 189.37 160.778 188.963 161.276 188.963C161.774 188.963 162.181 189.37 162.181 189.868V213.57C162.181 214.068 161.774 214.475 161.276 214.475Z" fill="#141BEB"/>
<path d="M169.636 208.689C169.138 208.689 168.731 208.282 168.731 207.784V184.325C168.731 183.827 169.138 183.42 169.636 183.42C170.133 183.42 170.54 183.827 170.54 184.325V207.784C170.54 208.282 170.133 208.689 169.636 208.689Z" fill="#141BEB"/>
<path d="M90.1098 205.302C89.5634 205.059 89.3205 204.403 89.5634 203.857C89.8062 203.31 90.4376 203.043 91.0084 203.31C91.5548 203.553 91.7976 204.19 91.5548 204.755C91.3787 205.15 90.9841 205.393 90.5469 205.393C90.4134 205.393 90.2616 205.368 90.1098 205.308V205.302Z" fill="white"/>
<path d="M79.0098 191.482C78.7245 191.482 78.4391 191.373 78.2448 191.154C78.0263 190.96 77.917 190.675 77.917 190.389C77.917 190.104 78.0263 189.819 78.2448 189.624C78.6395 189.206 79.3863 189.206 79.7809 189.624C79.9995 189.819 80.1087 190.104 80.1087 190.389C80.1087 190.675 79.9995 190.96 79.7809 191.154C79.5866 191.373 79.3013 191.482 79.0159 191.482H79.0098Z" fill="white"/>
<path d="M98.7247 201.573C98.154 201.397 97.8262 200.784 97.9779 200.189C98.154 199.618 98.7672 199.291 99.3379 199.467C99.9329 199.618 100.261 200.232 100.085 200.827C99.9511 201.288 99.514 201.616 99.0344 201.616C98.9494 201.616 98.8401 201.592 98.7247 201.573Z" fill="white"/>
<path d="M90.1074 198.416C89.5609 198.173 89.3181 197.517 89.5609 196.971C89.8038 196.425 90.4595 196.157 91.0059 196.425C91.5523 196.667 91.7952 197.299 91.5523 197.87C91.3763 198.264 90.9816 198.507 90.5445 198.507C90.4109 198.507 90.2591 198.483 90.1074 198.422V198.416Z" fill="white"/>
<path d="M82.0209 194.008C81.517 193.655 81.3834 192.975 81.7113 192.472C82.0634 191.968 82.7434 191.834 83.2473 192.168C83.7512 192.52 83.8848 193.2 83.5569 193.704C83.3384 194.014 82.9862 194.19 82.6341 194.19C82.4337 194.19 82.2152 194.123 82.0209 194.014V194.008Z" fill="white"/>
<path d="M103.417 202.755C103.131 202.755 102.846 202.646 102.652 202.428C102.433 202.233 102.324 201.948 102.324 201.663C102.324 201.377 102.433 201.092 102.652 200.898C102.961 200.588 103.441 200.479 103.835 200.655C103.969 200.697 104.097 200.788 104.188 200.898C104.406 201.092 104.515 201.377 104.515 201.663C104.515 201.948 104.406 202.233 104.188 202.428C104.103 202.537 103.969 202.622 103.835 202.67C103.702 202.737 103.574 202.755 103.417 202.755Z" fill="white"/>
<path d="M98.7186 208.465V208.44C98.1479 208.289 97.7958 207.675 97.9718 207.08C98.1479 206.51 98.7611 206.182 99.3318 206.358V206.334C99.9268 206.51 100.255 207.123 100.079 207.718C99.945 208.179 99.5079 208.507 99.0283 208.507C98.9433 208.507 98.834 208.483 98.7186 208.465Z" fill="white"/>
<path d="M85.9795 203.261C85.4331 202.976 85.257 202.32 85.5424 201.767C85.8278 201.239 86.4835 201.045 87.036 201.33H87.0117C87.5581 201.616 87.7584 202.296 87.4731 202.824C87.2788 203.194 86.8781 203.394 86.5077 203.394C86.3317 203.394 86.1374 203.352 85.9795 203.261Z" fill="white"/>
<path d="M82.0209 200.894C81.517 200.542 81.3834 199.886 81.7113 199.358C82.0634 198.854 82.7434 198.72 83.2473 199.048C83.7512 199.4 83.8848 200.08 83.5569 200.584C83.3384 200.894 82.9862 201.064 82.6341 201.064C82.4337 201.064 82.2152 200.997 82.0209 200.888V200.894Z" fill="white"/>
<path d="M94.358 213.285C93.7873 213.091 93.5019 212.453 93.7205 211.882C93.9208 211.312 94.5522 211.026 95.123 211.227C95.6937 211.445 95.979 212.058 95.7787 212.629C95.6026 213.091 95.1837 213.352 94.7465 213.352C94.613 213.352 94.4855 213.327 94.3519 213.285H94.358Z" fill="white"/>
<path d="M90.1074 211.573C89.5609 211.33 89.3181 210.674 89.5609 210.128C89.8038 209.582 90.4595 209.314 91.0059 209.582C91.5523 209.824 91.7952 210.456 91.5523 211.033C91.3763 211.427 90.9816 211.67 90.5445 211.67C90.4109 211.67 90.2591 211.646 90.1074 211.585V211.573Z" fill="white"/>
<path d="M85.9812 209.533C85.453 209.248 85.2344 208.592 85.5441 208.04C85.8294 207.511 86.4851 207.317 87.0376 207.602C87.5658 207.888 87.7601 208.568 87.4748 209.096C87.2805 209.472 86.8798 209.667 86.5094 209.667C86.3091 209.667 86.1391 209.624 85.9812 209.533Z" fill="white"/>
<path d="M103.42 215.919C103.268 215.919 103.134 215.895 103.001 215.834C102.867 215.792 102.74 215.701 102.649 215.591C102.43 215.397 102.321 215.112 102.321 214.826C102.321 214.541 102.43 214.256 102.649 214.061C102.734 213.952 102.867 213.861 103.001 213.819C103.395 213.642 103.875 213.752 104.185 214.061C104.403 214.256 104.513 214.541 104.513 214.826C104.513 215.112 104.403 215.397 104.185 215.591C103.99 215.81 103.705 215.919 103.42 215.919Z" fill="white"/>
<path d="M189.358 137.855C189.358 147.551 182.977 157.223 170.166 164.611C166.347 166.803 162.182 168.691 157.75 170.227C156.524 170.665 155.273 171.059 153.998 171.436C153.865 171.478 153.737 171.521 153.604 171.569C152.395 171.921 151.193 172.249 149.961 172.559C148.734 172.868 147.484 173.154 146.233 173.415C145.529 173.567 144.849 173.7 144.151 173.834C143.604 173.943 143.052 174.034 142.505 174.119C141.74 174.253 140.969 174.38 140.204 174.49C138.189 174.799 136.167 175.018 134.127 175.212H133.993C133.398 175.279 132.828 175.321 132.239 175.364C130.921 175.473 129.585 175.564 128.268 175.607C126.823 175.673 125.396 175.692 123.945 175.692H123.769C122.476 175.692 121.183 175.667 119.889 175.607H119.604C119.252 175.582 118.924 175.582 118.572 175.564C117.412 175.522 116.228 175.455 115.063 175.346C113.788 175.261 112.543 175.127 111.268 174.975C110.764 174.933 110.285 174.89 109.799 174.799C108.858 174.714 107.935 174.581 107.012 174.429C106.508 174.362 106.004 174.277 105.519 174.186C104.772 174.077 104.049 173.943 103.327 173.791C102.604 173.658 101.882 173.506 101.178 173.354C100.674 173.269 100.194 173.16 99.7083 173.026C98.8766 172.85 98.063 172.656 97.2555 172.431C96.1384 172.146 95.0152 171.836 93.9223 171.508C92.5624 171.114 91.2449 170.695 89.9517 170.233C85.5196 168.697 81.3546 166.809 77.5358 164.617C64.7495 157.223 58.3442 147.551 58.3442 137.861C58.3442 128.171 64.7495 118.518 77.5358 111.123C103.108 96.3631 144.588 96.3631 170.16 111.123C182.971 118.518 189.352 128.189 189.352 137.861L189.358 137.855Z" fill="white"/>
<path d="M159.593 120.765C139.541 110.136 107.038 110.136 86.9872 120.765C76.9409 126.094 71.9468 133.086 71.9551 140.078C71.9551 140.063 71.9551 140.047 71.9551 140.032V140.696C71.9551 140.795 71.98 140.894 71.9883 140.993C72.0131 141.382 72.0546 141.763 72.1127 142.152C72.1459 142.373 72.1791 142.594 72.2288 142.815C72.3035 143.219 72.4031 143.623 72.5109 144.028C72.569 144.226 72.627 144.424 72.6934 144.615C72.8344 145.049 72.9838 145.476 73.158 145.903C73.216 146.04 73.2824 146.178 73.3405 146.315C73.5562 146.811 73.7968 147.306 74.0705 147.802C74.2696 148.145 74.4604 148.48 74.6844 148.824C74.7923 148.976 74.8918 149.136 74.9997 149.289C75.2236 149.616 75.4642 149.96 75.7214 150.287C77.7622 152.948 80.6242 155.472 84.3076 157.752C84.8717 158.103 85.469 158.454 86.0663 158.797C86.365 158.964 86.6802 159.125 86.9955 159.3C87.1946 159.407 87.3771 159.506 87.5762 159.59C107.478 169.837 139.118 169.837 159.02 159.59C159.219 159.506 159.402 159.407 159.601 159.3C159.916 159.132 160.223 158.972 160.53 158.797C161.136 158.454 161.725 158.103 162.289 157.752C163.259 157.157 164.18 156.524 165.035 155.884C165.424 155.61 165.798 155.312 166.171 155.022C168.046 153.513 169.614 151.919 170.867 150.28C171.182 149.876 171.472 149.456 171.746 149.045C173.671 146.124 174.633 143.082 174.633 140.032C174.633 133.048 169.614 126.079 159.601 120.765H159.593Z" fill="#00EDBE"/>
<g filter="url(#filter0_f_167_22)">
<path d="M156.722 125.996C138.806 117.425 109.763 117.425 91.8468 125.996C82.8701 130.294 78.4076 135.932 78.415 141.571C78.415 141.558 78.415 141.546 78.415 141.534V142.069C78.415 142.149 78.4373 142.229 78.4447 142.309C78.4669 142.622 78.504 142.93 78.5559 143.243C78.5855 143.421 78.6152 143.6 78.6597 143.778C78.7264 144.104 78.8153 144.43 78.9117 144.756C78.9636 144.916 79.0155 145.075 79.0748 145.229C79.2008 145.58 79.3342 145.924 79.4899 146.268C79.5418 146.379 79.6011 146.49 79.653 146.6C79.8457 147 80.0607 147.4 80.3053 147.799C80.4832 148.076 80.6537 148.347 80.8538 148.623C80.9502 148.746 81.0391 148.875 81.1355 148.998C81.3356 149.263 81.5506 149.539 81.7804 149.804C83.6039 151.95 86.1613 153.985 89.4525 155.823C89.9566 156.106 90.4903 156.389 91.024 156.666C91.2908 156.801 91.5725 156.93 91.8542 157.071C92.0321 157.157 92.1952 157.237 92.3731 157.305C110.156 165.569 138.428 165.569 156.211 157.305C156.389 157.237 156.552 157.157 156.73 157.071C157.012 156.936 157.286 156.807 157.56 156.666C158.101 156.389 158.628 156.106 159.132 155.823C159.999 155.344 160.822 154.833 161.585 154.317C161.934 154.095 162.267 153.856 162.601 153.622C164.276 152.405 165.677 151.12 166.796 149.798C167.078 149.472 167.337 149.134 167.582 148.801C169.302 146.447 170.162 143.993 170.162 141.534C170.162 135.902 165.677 130.282 156.73 125.996H156.722Z" fill="#00FFB3"/>
</g>
<path opacity="0.4" d="M57.4951 0.452393H189.3L174.04 141.536C174.04 141.536 167.733 167.147 123.398 167.147C79.0626 167.147 73.8938 141.536 73.8938 141.536L57.4951 0.452393Z" fill="url(#paint0_linear_167_22)"/>
<path d="M123.951 176.597H123.775C122.312 176.597 121.024 176.567 119.847 176.506H119.61C119.385 176.494 119.221 176.488 119.063 176.482C118.887 176.482 118.705 176.47 118.523 176.458C117.2 176.409 116.034 176.336 114.983 176.239C113.866 176.16 112.646 176.045 111.165 175.863C110.661 175.82 110.175 175.772 109.683 175.687C108.827 175.608 107.929 175.486 106.872 175.31C106.386 175.249 105.864 175.158 105.366 175.067C104.65 174.964 103.915 174.831 103.144 174.667C102.434 174.539 101.699 174.381 100.989 174.229C100.503 174.144 99.9994 174.035 99.4773 173.889C98.7062 173.732 97.8866 173.531 97.0244 173.301C95.8527 173.003 94.7173 172.687 93.667 172.372C92.2099 171.947 90.8924 171.528 89.6538 171.084C85.1853 169.536 80.9597 167.624 77.0922 165.402C64.4213 158.08 57.4453 148.299 57.4453 137.862C57.4453 127.425 64.4213 117.662 77.0861 110.34C102.871 95.4595 144.83 95.4595 170.615 110.34C183.28 117.65 190.256 127.425 190.256 137.862C190.256 148.299 183.28 158.092 170.615 165.402C166.748 167.624 162.522 169.536 158.048 171.091C156.912 171.497 155.668 171.898 154.253 172.311L153.889 172.432C152.589 172.809 151.387 173.137 150.179 173.44C148.965 173.744 147.702 174.035 146.415 174.302C145.711 174.454 145.025 174.588 144.314 174.721C143.768 174.831 143.209 174.922 142.645 175.013C141.88 175.146 141.102 175.274 140.325 175.389C138.152 175.723 136.015 175.942 134.211 176.118C134.181 176.118 134.151 176.118 134.126 176.118H134.041C133.495 176.178 132.912 176.221 132.311 176.269C130.836 176.391 129.524 176.47 128.304 176.512C126.98 176.573 125.596 176.603 123.951 176.603V176.597ZM119.895 174.703C121.085 174.764 122.342 174.788 123.775 174.788H123.951C125.566 174.788 126.926 174.758 128.231 174.703C129.433 174.661 130.714 174.588 132.165 174.466C132.754 174.424 133.313 174.381 133.896 174.314C133.926 174.314 133.963 174.314 133.993 174.314H134.078C135.851 174.144 137.945 173.926 140.064 173.598C140.829 173.489 141.594 173.361 142.353 173.228C142.9 173.143 143.434 173.052 143.974 172.948C144.678 172.815 145.346 172.687 146.038 172.536C147.307 172.268 148.552 171.983 149.742 171.686C150.926 171.388 152.104 171.072 153.348 170.708L153.707 170.587C155.121 170.174 156.329 169.785 157.44 169.384C161.818 167.867 165.946 166.003 169.711 163.835C181.793 156.859 188.447 147.637 188.447 137.856C188.447 128.075 181.793 118.877 169.705 111.901C144.423 97.3052 103.278 97.3052 77.9908 111.901C65.9088 118.889 59.2485 128.105 59.2485 137.856C59.2485 147.606 65.9027 156.847 77.9908 163.835C81.755 165.997 85.8835 167.867 90.2488 169.378C91.4631 169.809 92.7441 170.222 94.177 170.635C95.2152 170.945 96.3262 171.254 97.4859 171.546C98.3298 171.777 99.1191 171.965 99.9023 172.129C100.424 172.268 100.874 172.372 101.341 172.451C102.07 172.608 102.786 172.76 103.497 172.888C104.249 173.046 104.954 173.173 105.658 173.276C106.156 173.367 106.648 173.452 107.133 173.513C108.196 173.689 109.058 173.804 109.884 173.883C109.908 173.883 109.932 173.883 109.962 173.896C110.394 173.974 110.831 174.017 111.347 174.059C112.828 174.236 114.018 174.357 115.123 174.43C116.161 174.527 117.297 174.6 118.602 174.648C118.79 174.661 118.948 174.667 119.112 174.673C119.294 174.673 119.47 174.685 119.658 174.697H119.889L119.895 174.703Z" fill="#141BEB"/>
<path d="M175.621 137.854C175.621 139.171 175.469 140.507 175.16 141.825C173.715 135.553 168.821 129.475 160.467 124.649C140.243 112.98 107.476 112.98 87.2526 124.649C78.8984 129.475 73.9806 135.547 72.5356 141.825C72.2321 140.507 72.0742 139.171 72.0742 137.854C72.0742 130.198 77.1438 122.566 87.2526 116.732C107.476 105.062 140.243 105.062 160.467 116.732C170.576 122.566 175.621 130.198 175.621 137.854Z" fill="#C2C7FB"/>
<path d="M175.16 142.73C174.741 142.73 174.377 142.439 174.28 142.032C172.823 135.724 167.893 129.986 160.012 125.439C140.074 113.934 107.635 113.934 87.7024 125.439C79.8097 129.999 74.8676 135.736 73.4105 142.032C73.3133 142.439 72.949 142.73 72.5301 142.73C72.1112 142.73 71.7469 142.439 71.6498 142.032C71.328 140.654 71.1641 139.245 71.1641 137.855C71.1641 129.543 76.7133 121.766 86.7917 115.949C107.228 104.159 140.475 104.159 160.911 115.949C170.977 121.76 176.52 129.537 176.52 137.855C176.52 139.251 176.356 140.654 176.034 142.032C175.937 142.439 175.573 142.73 175.154 142.73H175.16ZM123.857 108.888C110.761 108.888 97.6716 111.766 87.7024 117.516C78.2493 122.968 73.0219 130.15 72.9733 137.752C75.3654 132.5 80.0768 127.752 86.7978 123.873C107.234 112.082 140.481 112.082 160.917 123.873C167.626 127.746 172.325 132.488 174.717 137.746C174.668 130.144 169.447 122.962 160.012 117.516C150.043 111.766 136.947 108.888 123.857 108.888Z" fill="#141BEB"/>
<path d="M123.865 168.626C110.441 168.626 97.0236 165.675 86.8056 159.78C78.4635 154.965 73.23 148.827 71.6575 142.027C71.6272 141.893 71.6272 141.754 71.6575 141.62C73.23 134.82 78.4635 128.682 86.8056 123.867C107.242 112.077 140.488 112.077 160.925 123.867C169.248 128.676 174.476 134.814 176.048 141.62C176.079 141.754 176.079 141.893 176.048 142.027C174.476 148.833 169.248 154.977 160.925 159.78C150.707 165.675 137.289 168.626 123.865 168.626ZM73.4668 141.826C74.9786 148.044 79.8964 153.708 87.7102 158.219C107.648 169.724 140.088 169.724 160.02 158.219C167.816 153.72 172.727 148.056 174.239 141.826C172.727 135.597 167.816 129.933 160.02 125.434C140.082 113.929 107.642 113.929 87.7102 125.434C79.9024 129.945 74.9786 135.609 73.4668 141.826Z" fill="#141BEB"/>
<path d="M189.358 137.855V151.521C189.382 158.85 185.715 166.153 178.411 172.492C177.337 173.433 176.171 174.332 174.92 175.212C173.451 176.287 171.873 177.319 170.16 178.284C156.3 186.292 137.745 189.953 119.604 189.273C104.274 188.702 89.2475 185.041 77.5359 178.284C74.4213 176.487 71.677 174.556 69.3092 172.516C61.9811 166.178 58.3201 158.85 58.3444 151.527V137.861C58.3444 147.557 64.7496 157.228 77.5359 164.617C81.3548 166.809 85.5197 168.697 89.9518 170.233C91.245 170.695 92.5807 171.108 93.9225 171.508C95.0214 171.836 96.1385 172.146 97.2556 172.431C98.0692 172.65 98.8767 172.85 99.7085 173.026C100.194 173.16 100.674 173.269 101.178 173.354C101.882 173.506 102.604 173.664 103.327 173.791C104.049 173.943 104.778 174.077 105.519 174.186C106.004 174.271 106.508 174.362 107.012 174.429C107.935 174.58 108.852 174.69 109.799 174.799C110.285 174.884 110.789 174.933 111.268 174.975C112.519 175.127 113.788 175.26 115.063 175.345C116.229 175.43 117.413 175.522 118.572 175.564C118.924 175.588 119.252 175.588 119.604 175.607H119.89C121.183 175.673 122.476 175.692 123.769 175.692H123.945C125.39 175.692 126.817 175.667 128.268 175.607C129.586 175.564 130.921 175.473 132.239 175.364C132.834 175.321 133.398 175.279 133.993 175.212H134.127C136.167 175.012 138.183 174.793 140.204 174.489C140.969 174.38 141.74 174.271 142.505 174.119C143.052 174.034 143.604 173.943 144.151 173.834C144.855 173.7 145.553 173.573 146.233 173.415C147.484 173.154 148.735 172.868 149.961 172.559C151.187 172.249 152.42 171.921 153.604 171.569C153.737 171.527 153.865 171.484 153.998 171.435C155.273 171.065 156.518 170.671 157.751 170.227C162.183 168.691 166.348 166.803 170.166 164.611C182.977 157.216 189.358 147.545 189.358 137.855Z" fill="#C2C7FB"/>
<path d="M123.86 190.251C122.433 190.251 121.006 190.226 119.574 190.172C103.563 189.577 88.4761 185.63 77.0862 179.061C73.9656 177.258 71.1485 175.285 68.726 173.196C61.325 166.791 57.4211 159.293 57.4454 151.521V137.861C57.4454 137.363 57.8522 136.956 58.3501 136.956C58.8479 136.956 59.2547 137.363 59.2547 137.861C59.2547 147.63 65.9089 156.852 77.9969 163.84C81.7612 166.002 85.8897 167.872 90.255 169.383C91.3721 169.778 92.6168 170.179 94.1832 170.64C95.2153 170.95 96.3263 171.26 97.486 171.551C98.3299 171.782 99.1192 171.97 99.9024 172.134C100.425 172.273 100.874 172.377 101.341 172.456C102.07 172.613 102.786 172.765 103.497 172.893C104.249 173.051 104.954 173.178 105.658 173.281C106.156 173.372 106.648 173.457 107.133 173.518C108.05 173.67 108.93 173.773 109.908 173.888C110.388 173.973 110.855 174.016 111.304 174.058C111.317 174.058 111.377 174.064 111.383 174.064C112.755 174.234 113.982 174.356 115.129 174.435C116.216 174.514 117.436 174.611 118.608 174.653C118.796 174.666 118.954 174.672 119.118 174.678C119.3 174.678 119.476 174.69 119.665 174.702H119.895C121.085 174.757 122.342 174.787 123.775 174.787H123.951C125.566 174.787 126.926 174.757 128.231 174.702C129.433 174.659 130.714 174.587 132.166 174.465C132.754 174.423 133.313 174.38 133.896 174.313C133.926 174.313 133.963 174.313 133.993 174.313H134.078C135.851 174.143 137.945 173.925 140.064 173.597C140.823 173.488 141.588 173.378 142.329 173.233C142.9 173.142 143.434 173.057 143.974 172.947C144.679 172.814 145.365 172.686 146.039 172.535C147.314 172.267 148.558 171.982 149.748 171.685C151.078 171.351 152.256 171.035 153.348 170.707L153.713 170.586C155.127 170.173 156.336 169.784 157.447 169.383C161.824 167.866 165.953 166.002 169.717 163.834C181.799 156.858 188.453 147.636 188.453 137.855C188.453 137.357 188.86 136.95 189.358 136.95C189.855 136.95 190.262 137.357 190.262 137.855V151.521C190.287 159.275 186.395 166.761 179.006 173.172C177.943 174.101 176.778 175.012 175.442 175.947C173.9 177.076 172.267 178.126 170.609 179.067C158.175 186.25 141.333 190.251 123.86 190.251ZM59.2486 146.919V151.521C59.2304 158.759 62.9096 165.777 69.9038 171.83C72.2413 173.846 74.9613 175.752 77.9909 177.501C89.1257 183.924 103.922 187.786 119.64 188.369C138.292 189.067 156.542 185.108 169.711 177.501C171.32 176.596 172.886 175.582 174.392 174.483C175.685 173.573 176.802 172.705 177.816 171.812C184.798 165.753 188.477 158.74 188.453 151.528V146.932C185.624 153.895 179.528 160.258 170.615 165.401C166.748 167.623 162.522 169.535 158.048 171.09C156.912 171.496 155.668 171.897 154.253 172.31L153.889 172.431C152.741 172.771 151.539 173.099 150.179 173.439C148.965 173.743 147.702 174.034 146.415 174.301C145.711 174.459 144.97 174.599 144.314 174.72C143.768 174.829 143.203 174.921 142.645 175.012C141.892 175.163 141.103 175.273 140.338 175.382C138.152 175.716 136.015 175.941 134.205 176.111C134.175 176.111 134.145 176.111 134.12 176.111H134.035C133.489 176.171 132.906 176.214 132.305 176.262C130.83 176.384 129.518 176.463 128.298 176.505C126.975 176.566 125.59 176.596 123.945 176.596H123.769C122.306 176.596 121.019 176.566 119.841 176.505H119.604C119.379 176.493 119.215 176.487 119.057 176.481C118.881 176.481 118.699 176.469 118.517 176.457C117.333 176.414 116.089 176.317 114.996 176.238C113.824 176.159 112.567 176.032 111.159 175.862C110.649 175.813 110.145 175.771 109.641 175.679C108.694 175.57 107.795 175.461 106.866 175.309C106.381 175.248 105.858 175.157 105.361 175.066C104.644 174.963 103.909 174.829 103.138 174.666C102.428 174.538 101.693 174.38 100.983 174.228C100.497 174.143 99.9934 174.034 99.4713 173.888C98.7002 173.731 97.8806 173.53 97.0185 173.3C95.8467 173.002 94.7114 172.686 93.661 172.371C92.0643 171.897 90.7893 171.49 89.6479 171.083C85.1794 169.535 80.9537 167.623 77.0862 165.401C68.1735 160.246 62.0779 153.877 59.2486 146.919Z" fill="#141BEB"/>
<path d="M124.03 231.753C121.887 231.753 119.731 231.68 117.57 231.535C105.087 230.721 93.7641 227.576 84.8271 222.422C74.2386 216.283 68.4102 208.093 68.4102 199.356V172.509C68.4102 172.157 68.6166 171.835 68.9384 171.689C69.2601 171.544 69.6366 171.592 69.9037 171.823C72.2472 173.839 74.9672 175.745 77.9907 177.493C89.1256 183.917 103.921 187.778 119.64 188.361C138.291 189.059 156.542 185.101 169.711 177.493C171.319 176.589 172.886 175.575 174.392 174.476C175.685 173.565 176.802 172.697 177.816 171.805C178.083 171.574 178.459 171.513 178.781 171.659C179.103 171.805 179.309 172.126 179.309 172.479V199.35C179.309 208.093 173.469 216.283 162.868 222.416C152.413 228.451 138.534 231.747 124.024 231.747L124.03 231.753ZM70.2194 174.427V199.356C70.2194 207.425 75.7322 215.063 85.7378 220.861C94.3105 225.803 105.664 228.954 117.697 229.732C134.145 230.837 150.282 227.607 161.976 220.855C171.993 215.063 177.512 207.425 177.512 199.35V174.403C176.869 174.913 176.183 175.423 175.448 175.939C173.906 177.068 172.273 178.119 170.615 179.06C157.167 186.825 138.565 190.875 119.579 190.164C103.569 189.569 88.482 185.623 77.0922 179.054C74.5908 177.609 72.2837 176.055 70.2194 174.421V174.427Z" fill="#141BEB"/>
<defs>
<filter id="filter0_f_167_22" x="0.88269" y="42.0355" width="246.811" height="199" filterUnits="userSpaceOnUse" color-interpolation-filters="sRGB">
<feFlood flood-opacity="0" result="BackgroundImageFix"/>
<feBlend mode="normal" in="SourceGraphic" in2="BackgroundImageFix" result="shape"/>
<feGaussianBlur stdDeviation="38.7662" result="effect1_foregroundBlur_167_22"/>
</filter>
<linearGradient id="paint0_linear_167_22" x1="123.683" y1="-23.2204" x2="123.683" y2="152.835" gradientUnits="userSpaceOnUse">
<stop stop-color="white" stop-opacity="0"/>
<stop offset="1" stop-color="#00EDBE"/>
</linearGradient>
</defs>
</svg>
